<?xml version="1.0" encoding="iso-8859-1"?>
<!-- Generator: Adobe Illustrator 19.0.0, SVG Export Plug-In . SVG Version: 6.00 Build 0)  -->
<svg version="1.1" id="Capa_1" xmlns="http://www.w3.org/2000/svg" xmlns:xlink="http://www.w3.org/1999/xlink" x="0px" y="0px"
	 viewBox="0 0 479.302 479.302" style="enable-background:new 0 0 479.302 479.302;" xml:space="preserve">
<path style="fill:#ED6262;" d="M438.292,280.993c-39.529-23.191-203.927-23.416-203.927-23.416s80.429,143.375,119.959,166.566
	c39.529,23.191,90.368,9.939,113.559-29.591C491.073,355.022,477.822,304.183,438.292,280.993z"/>
<path style="fill:#E55E5E;" d="M438.292,280.993c-39.529-23.191-203.927-23.416-203.927-23.416s4.066,7.213,10.571,18.312
	c1.054-0.813,2.003-1.792,2.726-3.012l5.602-9.547c2.635-4.488,8.388-5.722,12.936-2.921c0,0,0,0,0.105,0.06c0,0,0,0,0.105,0.06
	c4.563,2.53,6.4,8.207,3.765,12.71l-6.671,11.369c-3.012,5.135-1.897,11.836,2.936,15.104c5.24,3.358,12.077,1.777,15.285-3.358
	l10.421-17.769c3.147-5.361,10.104-7.017,15.39-3.599c4.879,3.268,6.024,10.014,3.057,15.059l-9.743,16.625
	c-2.741,5-1.536,11.535,3.223,14.743c5.331,3.418,12.228,1.717,15.375-3.644l15.36-25.946c3.132-5.346,10.044-7.063,15.375-3.644
	c4.849,3.268,6.054,10.029,3.042,15.164l-16.264,27.723c-2.846,5.09-1.054,11.61,3.976,14.562c5.24,3.072,11.927,1.25,14.938-3.9
	l18.778-32.015c2.515-4.277,8.117-5.737,12.499-3.162c5.798,3.403,6.551,8.448,4.232,12.408l-18.447,31.443
	c-3.012,5.135-1.897,11.821,2.936,15.104c5.331,3.418,12.333,1.777,15.48-3.584l22.152-37.768c2.515-4.277,8.117-5.737,12.393-3.223
	c5.737,3.358,6.686,9.216,4.156,13.508l-19.516,33.28c-2.952,5.03-1.792,11.896,3.102,15.059c5.165,3.464,12.273,1.882,15.42-3.479
	l20.841-35.524c2.635-4.488,8.388-5.722,12.815-2.982c0.105,0.06,0.105,0.06,0.105,0.06c5.301,3.102,6.31,8.614,3.87,12.77
	l-21.911,37.346c-3.012,5.135-1.792,11.896,3.042,15.164c3.78,2.424,8.313,2.168,11.761-0.045c3.012-3.569,5.828-7.379,8.267-11.55
	C491.073,355.037,477.822,304.183,438.292,280.993z"/>
<path style="fill:#ED6262;" d="M41.01,280.993C1.481,304.183-11.771,355.022,11.42,394.551s74.029,52.781,113.559,29.591
	s119.959-166.566,119.959-166.566S80.54,257.817,41.01,280.993z"/>
<path style="fill:#E55E5E;" d="M41.01,280.993c39.529-23.191,203.927-23.416,203.927-23.416s-4.066,7.213-10.571,18.312
	c-1.054-0.813-2.003-1.792-2.726-3.012l-5.602-9.547c-2.635-4.488-8.388-5.722-12.936-2.921c0,0,0,0-0.105,0.06c0,0,0,0-0.105,0.06
	c-4.563,2.53-6.4,8.207-3.765,12.71l6.671,11.369c3.012,5.135,1.897,11.836-2.936,15.104c-5.24,3.358-12.077,1.777-15.285-3.358
	l-10.421-17.769c-3.147-5.361-10.104-7.017-15.39-3.599c-4.879,3.268-6.024,10.014-3.057,15.059l9.758,16.625
	c2.741,5,1.521,11.535-3.223,14.743c-5.331,3.418-12.228,1.717-15.375-3.644l-15.36-25.946c-3.132-5.346-10.044-7.063-15.375-3.644
	c-4.834,3.268-6.054,10.029-3.042,15.164l16.264,27.723c2.846,5.09,1.054,11.61-3.976,14.562c-5.24,3.072-11.927,1.25-14.938-3.9
	l-18.778-32.015c-2.515-4.277-8.117-5.737-12.499-3.162c-5.798,3.403-6.551,8.448-4.232,12.408l18.447,31.443
	c3.012,5.135,1.897,11.821-2.936,15.104c-5.331,3.418-12.333,1.777-15.48-3.584l-22.152-37.768
	c-2.394-4.081-7.62-6.024-13.041-2.846c-4.608,2.696-6.159,8.644-3.509,13.131l19.516,33.28c2.952,5.03,1.792,11.896-3.102,15.059
	c-5.165,3.464-12.273,1.882-15.42-3.479l-20.841-35.524c-2.635-4.488-8.388-5.722-12.83-2.982c-0.105,0.06-0.105,0.06-0.105,0.06
	c-0.105,0.06-0.105,0.06-0.211,0.12c-4.563,2.53-6.295,8.147-3.659,12.649l21.911,37.346c3.012,5.135,1.792,11.896-3.042,15.164
	c-3.78,2.424-8.312,2.168-11.761-0.045c-3.012-3.569-5.828-7.379-8.267-11.55C-11.771,355.037,1.481,304.183,41.01,280.993z"/>
<path style="fill:#ED6262;" d="M239.531,2.374c-45.824,0-82.974,37.15-82.974,82.974s82.974,187.738,82.974,187.738
	s82.974-141.914,82.974-187.738S285.37,2.374,239.531,2.374z"/>
<path style="fill:#E55E5E;" d="M156.557,85.364c0,45.824,82.974,187.738,82.974,187.738s4.171-7.153,10.451-18.387
	c-1.235-0.497-2.56-0.828-3.976-0.828h-11.068c-5.21,0-9.186-4.337-9.05-9.683c0,0,0,0,0-0.12c0,0,0,0,0-0.12
	c-0.12-5.21,3.84-9.683,9.05-9.683h13.176c5.963,0,11.174-4.337,11.535-10.18c0.241-6.219-4.578-11.309-10.632-11.475h-20.6
	c-6.219,0-11.174-5.165-10.888-11.445c0.346-5.858,5.587-10.255,11.445-10.255h19.275c5.692-0.166,10.722-4.518,11.083-10.24
	c0.256-6.325-4.713-11.415-10.918-11.415l-30.148-0.12c-6.204,0-11.174-5.09-10.918-11.415c0.376-5.828,5.587-10.3,11.535-10.3
	h32.136c5.828-0.12,10.541-4.969,10.541-10.797c0-6.084-4.969-10.918-10.918-10.918h-37.12c-4.744,0-9.065-3.539-9.065-9.924
	c-0.376-4.969,3.72-9.186,8.553-9.186h36.442c5.963,0,11.159-4.337,11.535-10.18c0.256-6.325-4.713-11.535-10.918-11.535h-43.791
	c-4.728,0-9.05-3.524-9.05-9.803c0-5.331,4.337-9.683,9.547-9.683h38.581c5.828,0,11.174-4.472,11.415-10.3
	c0.376-6.204-4.593-11.535-10.797-11.535H204.79c-5.21,0-9.186-4.337-9.05-9.547c0-0.12,0-0.12,0-0.12c0-0.12,0-0.12,0-0.241
	c-0.12-5.21,3.84-9.547,9.05-9.547h43.294c5.963,0,11.174-4.472,11.535-10.3c0.181-4.488-2.334-8.267-5.993-10.12
	c-4.608-0.798-9.306-1.295-14.14-1.295C193.707,2.374,156.557,39.525,156.557,85.364z"/>
<g>
	<path style="fill:#E5E5E5;" d="M338.046,92.517c66.304,25.961,112.023,86.679,88.365,171.445
		c11.942-79.872-31.699-130.906-96.135-147.29L338.046,92.517z"/>
	<path style="fill:#E5E5E5;" d="M340.952,438.388c-54.633,46.441-129.762,57.299-192.858-3.298
		c64.979,48.52,130.5,33.822,175.255-14.984L340.952,438.388z"/>
	<path style="fill:#E5E5E5;" d="M30.153,263.961c-9.517-83.049,35.72-142.11,110.125-158.359
		C77.227,127.83,36.357,182.177,55.135,259.519L30.153,263.961z"/>
</g>
<circle style="fill:#FFBD49;" cx="239.531" cy="265.949" r="60.838"/>
<circle style="fill:#FFDB6F;" cx="239.531" cy="265.949" r="33.837"/>
<g>
</g>
<g>
</g>
<g>
</g>
<g>
</g>
<g>
</g>
<g>
</g>
<g>
</g>
<g>
</g>
<g>
</g>
<g>
</g>
<g>
</g>
<g>
</g>
<g>
</g>
<g>
</g>
<g>
</g>
</svg>
